<svg width="161" height="173" viewBox="0 0 161 173" fill="none" xmlns="http://www.w3.org/2000/svg">
<path d="M30.0845 26.1645L30.2712 26.0019C47.4692 11.0374 70.3087 10.38 86.94 26.469C95.6115 34.8664 111.01 33.2575 122.038 36.2954C160.034 46.7654 153.456 96.5721 134.693 120.65C117.759 142.376 81.07 147.292 56.4176 136.594C34.7567 127.203 19.5068 106.222 14.0779 84.2717C13.5347 82.0712 13.0904 79.851 12.7448 77.6112C9.88863 58.9307 15.3723 39.098 30.0845 26.1645Z" fill="#1EAAF1"/>
<path opacity="0.7" d="M30.0845 26.1645L30.2712 26.0019C47.4692 11.0374 70.3087 10.38 86.94 26.469C95.6115 34.8664 111.01 33.2575 122.038 36.2954C160.034 46.7654 153.456 96.5721 134.693 120.65C117.759 142.376 81.07 147.292 56.4176 136.594C34.7567 127.203 19.5068 106.222 14.0779 84.2717C13.5347 82.0712 13.0904 79.851 12.7448 77.6112C9.88863 58.9307 15.3723 39.098 30.0845 26.1645Z" fill="white"/>
<path d="M107.194 33.2298H97.3986V41.1843" stroke="#263238" stroke-width="1.05369" stroke-linecap="round" stroke-linejoin="round"/>
<path d="M136.087 63.8439V33.2298H109.216" stroke="#263238" stroke-width="1.05369" stroke-linecap="round" stroke-linejoin="round"/>
<path d="M132.867 94.458H136.087V69.9993" stroke="#263238" stroke-width="1.05369" stroke-linecap="round" stroke-linejoin="round"/>
<path d="M125.731 94.458H130.152" stroke="#263238" stroke-width="1.05369" stroke-linecap="round" stroke-linejoin="round"/>
<path d="M97.3986 47.6753V94.458H123.909" stroke="#263238" stroke-width="1.05369" stroke-linecap="round" stroke-linejoin="round"/>
<path d="M129.57 53.6957H133.653V51.1838" stroke="#263238" stroke-width="1.05369" stroke-linecap="round" stroke-linejoin="round"/>
<path d="M117.527 45.0353V53.6957H128.726" stroke="#263238" stroke-width="1.05369" stroke-linecap="round" stroke-linejoin="round"/>
<path d="M118.87 36.3715H117.527V43.3642" stroke="#263238" stroke-width="1.05369" stroke-linecap="round" stroke-linejoin="round"/>
<path d="M121.845 36.3715H120" stroke="#263238" stroke-width="1.05369" stroke-linecap="round" stroke-linejoin="round"/>
<path d="M133.653 49.4226V36.3715H122.602" stroke="#263238" stroke-width="1.05369" stroke-linecap="round" stroke-linejoin="round"/>
<path d="M129.57 91.3163H133.653V88.8009" stroke="#263238" stroke-width="1.05369" stroke-linecap="round" stroke-linejoin="round"/>
<path d="M117.527 82.6525V91.3163H128.726" stroke="#263238" stroke-width="1.05369" stroke-linecap="round" stroke-linejoin="round"/>
<path d="M118.87 73.9886H117.527V80.9848" stroke="#263238" stroke-width="1.05369" stroke-linecap="round" stroke-linejoin="round"/>
<path d="M121.845 73.9886H120" stroke="#263238" stroke-width="1.05369" stroke-linecap="round" stroke-linejoin="round"/>
<path d="M133.653 87.0398V73.9886H122.602" stroke="#263238" stroke-width="1.05369" stroke-linecap="round" stroke-linejoin="round"/>
<path d="M111.872 72.4696H115.955V69.9542" stroke="#263238" stroke-width="1.05369" stroke-linecap="round" stroke-linejoin="round"/>
<path d="M99.8329 63.8058V72.4697H111.029" stroke="#263238" stroke-width="1.05369" stroke-linecap="round" stroke-linejoin="round"/>
<path d="M101.172 55.142H99.8329V62.1347" stroke="#263238" stroke-width="1.05369" stroke-linecap="round" stroke-linejoin="round"/>
<path d="M104.148 55.142H102.303" stroke="#263238" stroke-width="1.05369" stroke-linecap="round" stroke-linejoin="round"/>
<path d="M115.955 68.1931V55.142H104.908" stroke="#263238" stroke-width="1.05369" stroke-linecap="round" stroke-linejoin="round"/>
<path d="M111.872 91.2437H115.955V88.7283" stroke="#263238" stroke-width="1.05369" stroke-linecap="round" stroke-linejoin="round"/>
<path d="M99.8329 82.5798V91.2437H111.029" stroke="#263238" stroke-width="1.05369" stroke-linecap="round" stroke-linejoin="round"/>
<path d="M101.172 73.916H99.8329V80.9087" stroke="#263238" stroke-width="1.05369" stroke-linecap="round" stroke-linejoin="round"/>
<path d="M104.148 73.916H102.303" stroke="#263238" stroke-width="1.05369" stroke-linecap="round" stroke-linejoin="round"/>
<path d="M115.955 86.9671V73.916H104.908" stroke="#263238" stroke-width="1.05369" stroke-linecap="round" stroke-linejoin="round"/>
<path d="M117.527 68.1205V72.5078H119.939" stroke="#263238" stroke-width="1.05369" stroke-linecap="round" stroke-linejoin="round"/>
<path d="M125.664 55.1801H117.527V67.2139" stroke="#263238" stroke-width="1.05369" stroke-linecap="round" stroke-linejoin="round"/>
<path d="M133.653 56.6229V55.1801H127.216" stroke="#263238" stroke-width="1.05369" stroke-linecap="round" stroke-linejoin="round"/>
<path d="M133.653 59.8165V57.8373" stroke="#263238" stroke-width="1.05369" stroke-linecap="round" stroke-linejoin="round"/>
<path d="M121.581 72.5078H133.653V60.6331" stroke="#263238" stroke-width="1.05369" stroke-linecap="round" stroke-linejoin="round"/>
<path d="M99.8329 49.3119V53.6957H102.241" stroke="#263238" stroke-width="1.05369" stroke-linecap="round" stroke-linejoin="round"/>
<path d="M107.967 36.3715H99.8329V48.4054" stroke="#263238" stroke-width="1.05369" stroke-linecap="round" stroke-linejoin="round"/>
<path d="M115.955 37.8109V36.3715H109.522" stroke="#263238" stroke-width="1.05369" stroke-linecap="round" stroke-linejoin="round"/>
<path d="M115.955 41.0079V39.0288" stroke="#263238" stroke-width="1.05369" stroke-linecap="round" stroke-linejoin="round"/>
<path d="M103.884 53.6957H115.955V41.8245" stroke="#263238" stroke-width="1.05369" stroke-linecap="round" stroke-linejoin="round"/>
<path d="M35.9449 33.2298H26.1496V41.1843" stroke="#263238" stroke-width="1.05369" stroke-linecap="round" stroke-linejoin="round"/>
<path d="M64.8347 63.8439V33.2298H37.967" stroke="#263238" stroke-width="1.05369" stroke-linecap="round" stroke-linejoin="round"/>
<path d="M61.6147 94.458H64.8347V69.9993" stroke="#263238" stroke-width="1.05369" stroke-linecap="round" stroke-linejoin="round"/>
<path d="M54.4824 94.458H58.9003" stroke="#263238" stroke-width="1.05369" stroke-linecap="round" stroke-linejoin="round"/>
<path d="M26.1496 47.6753V94.458H52.6599" stroke="#263238" stroke-width="1.05369" stroke-linecap="round" stroke-linejoin="round"/>
<path d="M58.3206 53.6957H62.4036V51.1838" stroke="#263238" stroke-width="1.05369" stroke-linecap="round" stroke-linejoin="round"/>
<path d="M46.2778 45.0353V53.6957H57.477" stroke="#263238" stroke-width="1.05369" stroke-linecap="round" stroke-linejoin="round"/>
<path d="M47.6206 36.3715H46.2778V43.3642" stroke="#263238" stroke-width="1.05369" stroke-linecap="round" stroke-linejoin="round"/>
<path d="M50.5926 36.3715H48.7508" stroke="#263238" stroke-width="1.05369" stroke-linecap="round" stroke-linejoin="round"/>
<path d="M62.4036 49.4226V36.3715H51.3526" stroke="#263238" stroke-width="1.05369" stroke-linecap="round" stroke-linejoin="round"/>
<path d="M58.3206 91.3163H62.4036V88.8009" stroke="#263238" stroke-width="1.05369" stroke-linecap="round" stroke-linejoin="round"/>
<path d="M46.2778 82.6525V91.3163H57.477" stroke="#263238" stroke-width="1.05369" stroke-linecap="round" stroke-linejoin="round"/>
<path d="M47.6206 73.9886H46.2778V80.9848" stroke="#263238" stroke-width="1.05369" stroke-linecap="round" stroke-linejoin="round"/>
<path d="M50.5926 73.9886H48.7508" stroke="#263238" stroke-width="1.05369" stroke-linecap="round" stroke-linejoin="round"/>
<path d="M62.4036 87.0398V73.9886H51.3526" stroke="#263238" stroke-width="1.05369" stroke-linecap="round" stroke-linejoin="round"/>
<path d="M40.6235 72.4696H44.7065V69.9542" stroke="#263238" stroke-width="1.05369" stroke-linecap="round" stroke-linejoin="round"/>
<path d="M28.5807 63.8058V72.4697H39.7799" stroke="#263238" stroke-width="1.05369" stroke-linecap="round" stroke-linejoin="round"/>
<path d="M29.9235 55.142H28.5807V62.1347" stroke="#263238" stroke-width="1.05369" stroke-linecap="round" stroke-linejoin="round"/>
<path d="M32.8955 55.142H31.0537" stroke="#263238" stroke-width="1.05369" stroke-linecap="round" stroke-linejoin="round"/>
<path d="M44.7065 68.1931V55.142H33.6555" stroke="#263238" stroke-width="1.05369" stroke-linecap="round" stroke-linejoin="round"/>
<path d="M40.6235 91.2437H44.7065V88.7283" stroke="#263238" stroke-width="1.05369" stroke-linecap="round" stroke-linejoin="round"/>
<path d="M28.5807 82.5798V91.2437H39.7799" stroke="#263238" stroke-width="1.05369" stroke-linecap="round" stroke-linejoin="round"/>
<path d="M29.9235 73.916H28.5807V80.9087" stroke="#263238" stroke-width="1.05369" stroke-linecap="round" stroke-linejoin="round"/>
<path d="M32.8955 73.916H31.0537" stroke="#263238" stroke-width="1.05369" stroke-linecap="round" stroke-linejoin="round"/>
<path d="M44.7065 86.9671V73.916H33.6555" stroke="#263238" stroke-width="1.05369" stroke-linecap="round" stroke-linejoin="round"/>
<path d="M46.2778 68.1205V72.5078H48.6896" stroke="#263238" stroke-width="1.05369" stroke-linecap="round" stroke-linejoin="round"/>
<path d="M54.4116 55.1801H46.2778V67.2139" stroke="#263238" stroke-width="1.05369" stroke-linecap="round" stroke-linejoin="round"/>
<path d="M62.4036 56.6229V55.1801H55.9668" stroke="#263238" stroke-width="1.05369" stroke-linecap="round" stroke-linejoin="round"/>
<path d="M62.4036 59.8165V57.8373" stroke="#263238" stroke-width="1.05369" stroke-linecap="round" stroke-linejoin="round"/>
<path d="M50.3286 72.5078H62.4036V60.6331" stroke="#263238" stroke-width="1.05369" stroke-linecap="round" stroke-linejoin="round"/>
<path d="M28.5807 49.3119V53.6957H30.9925" stroke="#263238" stroke-width="1.05369" stroke-linecap="round" stroke-linejoin="round"/>
<path d="M36.7144 36.3715H28.5807V48.4054" stroke="#263238" stroke-width="1.05369" stroke-linecap="round" stroke-linejoin="round"/>
<path d="M44.7065 37.8109V36.3715H38.2697" stroke="#263238" stroke-width="1.05369" stroke-linecap="round" stroke-linejoin="round"/>
<path d="M44.7065 41.0079V39.0288" stroke="#263238" stroke-width="1.05369" stroke-linecap="round" stroke-linejoin="round"/>
<path d="M32.6315 53.6957H44.7065V41.8245" stroke="#263238" stroke-width="1.05369" stroke-linecap="round" stroke-linejoin="round"/>
<path d="M91.374 18.6044C91.6682 20.3484 91.5487 22.1439 91.0264 23.8251C90.5041 25.5063 89.596 27.0189 88.3858 28.2232" stroke="#263238" stroke-width="1.05369" stroke-linecap="round" stroke-linejoin="round"/>
<path d="M81.4821 9.91635C84.0242 9.85447 86.4897 10.8541 88.36 12.7051" stroke="#263238" stroke-width="1.05369" stroke-linecap="round" stroke-linejoin="round"/>
<path d="M72.025 22.3516C71.5636 19.5941 72.1402 16.7526 73.628 14.4519C75.1158 12.1511 77.3931 10.5794 79.959 10.0824" stroke="#263238" stroke-width="1.05369" stroke-linecap="round" stroke-linejoin="round"/>
<path d="M83.4431 30.8736C81.2374 31.2998 78.9625 30.9038 76.9949 29.751C75.0273 28.5983 73.4852 26.758 72.6239 24.5349" stroke="#263238" stroke-width="1.05369" stroke-linecap="round" stroke-linejoin="round"/>
<path d="M75.67 13.7777C76.8004 12.6048 78.206 11.7837 79.7368 11.4021C81.2675 11.0205 82.866 11.0927 84.3615 11.611C85.8571 12.1293 87.1936 13.0742 88.2284 14.3448C89.2633 15.6155 89.9576 17.1643 90.2373 18.8259" stroke="#263238" stroke-width="1.05369" stroke-linecap="round" stroke-linejoin="round"/>
<path d="M90.3242 21.5004C90.1864 22.8587 89.7725 24.1678 89.1116 25.3351C88.4507 26.5023 87.5591 27.4992 86.4999 28.2551C85.4407 29.011 84.2398 29.5075 82.9822 29.7093C81.7246 29.9112 80.4411 29.8135 79.2225 29.4232C78.004 29.0329 76.8802 28.3595 75.9307 27.4507C74.9812 26.5419 74.2293 25.4199 73.7281 24.1642C73.227 22.9085 72.9889 21.5498 73.0306 20.1842C73.0724 18.8186 73.393 17.4796 73.9698 16.262" stroke="#263238" stroke-width="1.05369" stroke-linecap="round" stroke-linejoin="round"/>
<path d="M81.0345 13.532L81.7011 20.4763L77.441 23.3411" stroke="#263238" stroke-width="1.05369" stroke-linecap="round" stroke-linejoin="round"/>
<path d="M144.935 122.833H15.7039V143.773H144.935V122.833Z" fill="white"/>
<path d="M144.935 122.833V138.32" stroke="#263238" stroke-width="1.05369" stroke-linecap="round" stroke-linejoin="round"/>
<path opacity="0.4" d="M144.935 128.328V122.83H15.704C15.7027 126.163 16.7416 129.4 18.6545 132.024C20.5674 134.648 23.2439 136.507 26.2559 137.303C32.7764 139.033 42.1144 140.594 53.7064 140.182C69.8064 139.611 96.2426 125.809 115.627 129.511C135.472 133.303 144.935 128.328 144.935 128.328Z" fill="#1EAAF1"/>
<path d="M15.7039 116.512H142.833L146.223 121.467V123.401H12.3133" fill="white"/>
<path d="M15.7039 116.512H142.833L146.223 121.467V123.401H12.3133" stroke="#263238" stroke-width="1.05369" stroke-linecap="round" stroke-linejoin="round"/>
<path d="M9.59882 121.467H144.868" stroke="#263238" stroke-width="1.05369" stroke-linecap="round" stroke-linejoin="round"/>
<path d="M38.9845 101.745C33.2723 102.357 28.2716 104.942 25.4058 111.014C25.4058 111.014 21.6481 114.007 23.5736 116.623L56.4788 116.377C56.4788 116.377 57.7249 113.225 54.4438 111.533C54.4438 111.543 49.7007 100.596 38.9845 101.745Z" fill="white" stroke="#263238" stroke-width="1.05369" stroke-linecap="round" stroke-linejoin="round"/>
<path opacity="0.4" d="M35.0626 102.534C35.0626 102.534 32.3642 103.755 35.0626 106.976L36.196 106.125C36.196 106.125 38.4983 107.547 39.664 107.568C40.8296 107.589 42.5942 105.862 42.5942 105.862L43.2768 107.312C43.2768 107.312 44.8353 104.284 43.2768 102.842C41.7183 101.399 35.0626 102.534 35.0626 102.534Z" fill="#1EAAF1"/>
<path opacity="0.4" d="M26.3106 111.976C26.8961 112.143 27.419 112.501 27.8076 113C28.1962 113.5 28.4314 114.116 28.4809 114.765C28.6805 117.069 50.9629 115.772 50.9629 115.772C50.9629 115.772 50.7375 112.889 52.7951 111.966C52.7951 111.966 53.1976 111.339 51.813 111.62C51.044 111.747 50.3356 112.144 49.7973 112.748C49.7973 112.748 49.5751 111.045 50.0227 110.274C50.4703 109.502 48.1422 110.083 48.1422 111.284C48.1422 112.485 46.954 110.246 47.2567 108.243C47.5594 106.239 46.2102 109.744 45.9912 111.011C45.7723 112.277 33.1531 112.315 32.7506 111.869C32.3481 111.422 32.1066 108.917 31.5592 108.485C31.0118 108.052 30.941 110.018 30.941 110.018C30.941 110.018 30.722 107.942 30.0136 107.706C29.3052 107.471 30.1134 109.782 30.1553 111.011C30.1553 111.011 29.4404 110.215 28.6805 110.319C27.9206 110.422 28.6354 111.135 28.7256 111.955C28.8158 112.775 26.7067 111.066 26.3106 111.976Z" fill="#1EAAF1"/>
<path d="M38.421 106.942C38.421 106.942 37.3778 108.454 37.455 110.056C37.455 110.056 39.02 109.018 39.445 107.793C39.445 107.793 40.6525 109.803 42.0854 109.744C42.0854 109.744 40.9455 107.481 40.4239 107.128C41.658 106.232 42.6473 104.998 43.2897 103.554C43.2897 103.554 42.343 103.655 42.3655 103.309C42.3655 103.309 40.4561 106.706 39.4675 106.952C38.4084 106.362 37.5853 105.378 37.1524 104.184L35.0658 103.893C35.0658 103.893 36.6597 106.346 38.421 106.942Z" fill="#1EAAF1" stroke="#263238" stroke-width="1.05369" stroke-linecap="round" stroke-linejoin="round"/>
<path d="M39.1777 106.568C38.6303 105.482 36.4504 104.191 36.4504 104.191L35.0626 106.045C32.464 103.596 35.0626 101.201 35.0626 101.201C35.7742 100.163 41.6571 99.5234 42.9934 101.201C44.3297 102.88 44.2814 104.457 43.7018 106.001L42.4621 103.869C42.4621 103.869 40.3788 104.603 39.8571 106.564" fill="white"/>
<path d="M39.1777 106.568C38.6303 105.482 36.4504 104.191 36.4504 104.191L35.0626 106.045C32.464 103.596 35.0626 101.201 35.0626 101.201C35.7742 100.163 41.6571 99.5234 42.9934 101.201C44.3297 102.88 44.2814 104.457 43.7018 106.001L42.4621 103.869C42.4621 103.869 40.3788 104.603 39.8571 106.564" stroke="#263238" stroke-width="1.05369" stroke-linecap="round" stroke-linejoin="round"/>
<path d="M41.7666 99.9041C41.6961 100.941 41.6961 101.981 41.7666 103.018C41.158 103.938 39.4064 105.208 39.4064 105.208C38.025 104.71 36.1864 102.596 36.1864 102.596C36.318 101.947 36.3398 101.278 36.2508 100.62C36.1567 99.7493 36.0094 98.8858 35.8096 98.0357C35.7903 97.9526 35.7806 97.9042 35.7806 97.9042H42.182C42.0643 98.1675 41.9767 98.4452 41.9212 98.7311C41.8462 99.1181 41.7946 99.5099 41.7666 99.9041Z" fill="#BFBFBF" stroke="#263238" stroke-width="1.05369" stroke-linecap="round" stroke-linejoin="round"/>
<path d="M41.918 98.7276C41.844 99.1158 41.7934 99.5088 41.7666 99.904C40.8006 100.918 38.9846 102.094 36.2637 100.617C36.1696 99.7457 36.0223 98.8823 35.8225 98.0321C37.7126 98.0044 40.6461 98.4958 41.918 98.7276Z" fill="#263238"/>
<path d="M44.9576 92.4442C44.9576 92.4442 45.6886 92.0498 45.9236 92.4719C46.1587 92.894 45.563 95.1569 45.4439 95.3956C45.2208 95.6685 45.0214 95.9627 44.8482 96.2745C44.4231 97.0564 44.2396 96.7035 44.2492 96.2572" fill="#BFBFBF"/>
<path d="M44.9576 92.4442C44.9576 92.4442 45.6886 92.0498 45.9236 92.4719C46.1587 92.894 45.563 95.1569 45.4439 95.3956C45.2208 95.6685 45.0214 95.9627 44.8482 96.2745C44.4231 97.0564 44.2396 96.7035 44.2492 96.2572" stroke="#263238" stroke-width="1.05369" stroke-linecap="round" stroke-linejoin="round"/>
<path d="M33.5492 92.0983C33.5492 92.0983 32.8408 91.6658 32.5832 92.0706C32.3256 92.4754 32.8021 94.7694 32.9052 95.0151C33.1143 95.302 33.2986 95.609 33.4558 95.932C33.8422 96.7381 34.0418 96.3956 34.0547 95.9493" fill="#BFBFBF"/>
<path d="M33.5492 92.0983C33.5492 92.0983 32.8408 91.6658 32.5832 92.0706C32.3256 92.4754 32.8021 94.7694 32.9052 95.0151C33.1143 95.302 33.2986 95.609 33.4558 95.932C33.8422 96.7381 34.0418 96.3956 34.0547 95.9493" stroke="#263238" stroke-width="1.05369" stroke-linecap="round" stroke-linejoin="round"/>
<path d="M39.4901 85.0052C43.9337 85.1367 44.7483 89.1573 44.7033 93.0774C44.6292 99.3746 41.9469 100.056 38.9845 99.9663C35.9513 99.8729 33.8905 99.7068 33.7198 92.5307C33.6265 88.7005 35.127 84.8738 39.4901 85.0052Z" fill="#BFBFBF" stroke="#263238" stroke-width="1.05369" stroke-linecap="round" stroke-linejoin="round"/>
<path d="M37.9413 90.1019C37.9413 90.1019 36.8046 89.3545 35.61 90.8146" stroke="#263238" stroke-width="1.05369" stroke-linecap="round" stroke-linejoin="round"/>
<path d="M40.7298 90.0776C41.1749 89.9514 41.6454 89.9765 42.0767 90.1494C42.5079 90.3222 42.8788 90.6344 43.1383 91.0429" stroke="#263238" stroke-width="1.05369" stroke-linecap="round" stroke-linejoin="round"/>
<path d="M37.455 92.3508C37.455 92.7383 37.2457 93.0428 37.0075 93.0428C36.7692 93.0428 36.5889 92.7175 36.5985 92.3335C36.6082 91.9494 36.8078 91.6415 37.0461 91.6415C37.2844 91.6415 37.4647 91.9667 37.455 92.3508Z" fill="#263238"/>
<path d="M41.8825 92.4857C41.8825 92.8698 41.6732 93.1777 41.4349 93.1777C41.1967 93.1777 41.0163 92.8525 41.026 92.4649C41.0357 92.0774 41.2353 91.7729 41.4736 91.7729C41.7119 91.7729 41.8922 92.0982 41.8825 92.4857Z" fill="#263238"/>
<path d="M43.6503 94.6968C43.6503 94.6968 44.2493 94.4269 45.006 92.6588" stroke="#263238" stroke-width="1.05369" stroke-linecap="round" stroke-linejoin="round"/>
<path d="M34.8275 94.4303C34.8275 94.4303 33.9742 94.0047 33.7198 92.5308" stroke="#263238" stroke-width="1.05369" stroke-linecap="round" stroke-linejoin="round"/>
<path d="M34.454 94.1881C34.454 94.1881 38.2343 93.1501 39.1649 93.1017C40.0954 93.0532 44.0464 94.4857 44.0464 94.4857C44.0464 94.4857 43.3831 98.6827 42.6071 99.5338C41.831 100.385 37.7771 100.807 35.6873 99.43C35.1367 99.0529 34.454 94.1881 34.454 94.1881Z" fill="#1EAAF1" stroke="#263238" stroke-width="1.05369" stroke-linecap="round" stroke-linejoin="round"/>
<path d="M33.7456 93.3369C33.8585 92.3266 34.1046 91.3387 34.4765 90.4028C34.8108 89.6718 34.9352 88.8504 34.8339 88.0431C34.8339 88.0431 35.5681 85.8599 38.8718 85.9671C39.8117 85.9799 40.739 86.2016 41.5952 86.6185C42.4515 87.0353 43.2181 87.6382 43.8467 88.3891C43.8467 88.3891 43.705 90.299 43.8467 90.7281C43.9884 91.1571 44.7709 92.8525 44.6743 93.9355C44.6743 93.9355 45.6757 91.6865 45.592 91.4927C45.5082 91.299 46.1716 91.299 46.1329 90.5897C46.0943 89.8804 45.2667 89.4133 45.7787 88.6694C46.2907 87.9255 46.6771 87.5829 46.1973 86.8425C45.7175 86.1021 45.1991 85.3789 45.4084 84.4205C45.6177 83.4621 43.2478 83.2856 42.5297 82.9327C41.8117 82.5798 42.1305 82.2407 41.4832 81.9258C40.836 81.611 39.3033 81.8566 38.8364 82.085C38.3695 82.3134 37.3552 81.5522 36.3377 82.0227C35.3202 82.4933 34.5409 82.4206 34.6214 83.2476C34.7019 84.0745 34.0064 84.116 33.4558 84.5485C32.9052 84.981 32.6508 86.0294 32.8665 86.5276C33.0823 87.0259 32.7377 87.4411 32.4737 88.012C32.2096 88.5829 32.01 89.6416 32.3674 90.1849C32.7248 90.7281 33.2851 90.434 33.0984 90.953C32.9116 91.472 33.7456 93.3369 33.7456 93.3369Z" fill="#263238"/>
<path d="M30.0136 107.312C30.0136 107.312 31.9456 111.637 30.239 114.765" stroke="#263238" stroke-width="1.05369" stroke-linecap="round" stroke-linejoin="round"/>
<path d="M31.4465 107.803C31.4465 107.803 31.9102 110.149 30.941 111.976" stroke="#263238" stroke-width="1.05369" stroke-linecap="round" stroke-linejoin="round"/>
<path d="M47.7783 106.976C47.7783 106.976 45.4954 110.928 48.4932 114.526" stroke="#263238" stroke-width="1.05369" stroke-linecap="round" stroke-linejoin="round"/>
<path d="M46.6127 107.803C46.6127 107.803 45.9912 109.478 46.9347 111.637" stroke="#263238" stroke-width="1.05369" stroke-linecap="round" stroke-linejoin="round"/>
<path d="M56.2309 116.204C56.9071 114.82 56.1665 113.09 54.3761 112.803C52.5858 112.516 50.7987 113.682 51.3751 115.893C51.9515 118.104 55.384 117.955 56.2309 116.204Z" fill="#BFBFBF" stroke="#263238" stroke-width="1.05369" stroke-linecap="round" stroke-linejoin="round"/>
<path d="M52.9787 113.419C52.9787 113.419 46.1555 114.862 44.4585 114.689C42.7616 114.516 40.733 113.353 39.9505 113.737C39.1681 114.121 38.0894 116.228 37.9123 116.533C37.7352 116.837 38.7946 117.464 39.3838 117.432C39.7455 117.388 40.0962 117.271 40.4174 117.086C40.4174 117.086 40.952 118.329 43.8661 117.346C43.8661 117.346 53.1107 119.211 55.4581 117.18C56.9167 115.91 56.4949 114.758 55.4033 114.066" fill="#BFBFBF"/>
<path d="M52.9787 113.419C52.9787 113.419 46.1555 114.862 44.4585 114.689C42.7616 114.516 40.733 113.353 39.9505 113.737C39.1681 114.121 38.0894 116.228 37.9123 116.533C37.7352 116.837 38.7946 117.464 39.3838 117.432C39.7455 117.388 40.0962 117.271 40.4174 117.086C40.4174 117.086 40.952 118.329 43.8661 117.346C43.8661 117.346 53.1107 119.211 55.4581 117.18C56.9167 115.91 56.4949 114.758 55.4033 114.066" stroke="#263238" stroke-width="1.05369" stroke-linecap="round" stroke-linejoin="round"/>
<path d="M40.4207 117.079C40.4207 117.079 40.6976 116.474 39.8024 116.204C39.8024 116.204 39.445 115.401 39.5545 114.969" stroke="#263238" stroke-width="1.05369" stroke-linecap="round" stroke-linejoin="round"/>
<path d="M39.8024 116.204C39.6968 116.344 39.5608 116.454 39.4064 116.524C39.252 116.594 39.0839 116.622 38.9169 116.605" stroke="#263238" stroke-width="1.05369" stroke-linecap="round" stroke-linejoin="round"/>
<path d="M43.8693 117.339C43.8693 117.339 43.6729 117.079 43.8693 116.377" stroke="#263238" stroke-width="1.05369" stroke-linecap="round" stroke-linejoin="round"/>
<path d="M23.4545 116.135C22.8652 114.713 23.7121 113.021 25.5153 112.876C27.3185 112.73 29.0283 114.007 28.3167 116.17C27.6051 118.332 24.2015 117.944 23.4545 116.135Z" fill="#BFBFBF" stroke="#263238" stroke-width="1.05369" stroke-linecap="round" stroke-linejoin="round"/>
<path d="M26.8741 113.588C26.8741 113.588 33.5911 115.515 35.2944 115.464C36.9978 115.412 39.094 114.398 39.8475 114.837C40.601 115.277 41.5509 117.457 41.7087 117.771C41.8665 118.086 40.7684 118.64 40.1824 118.567C39.8249 118.492 39.4833 118.346 39.1745 118.138C39.1745 118.138 38.5627 119.339 35.7195 118.138C35.7195 118.138 26.3815 119.342 24.1726 117.149C22.7944 115.765 23.2871 114.644 24.4173 114.035" fill="#BFBFBF"/>
<path d="M26.8741 113.588C26.8741 113.588 33.5911 115.515 35.2944 115.464C36.9978 115.412 39.094 114.398 39.8475 114.837C40.601 115.277 41.5509 117.457 41.7087 117.771C41.8665 118.086 40.7684 118.64 40.1824 118.567C39.8249 118.492 39.4833 118.346 39.1745 118.138C39.1745 118.138 38.5627 119.339 35.7195 118.138C35.7195 118.138 26.3815 119.342 24.1726 117.149C22.7944 115.765 23.2871 114.644 24.4173 114.035" stroke="#263238" stroke-width="1.05369" stroke-linecap="round" stroke-linejoin="round"/>
<path d="M39.1745 118.138C39.1745 118.138 38.9362 117.512 39.8475 117.308C39.8475 117.308 40.2532 116.536 40.1695 116.093" stroke="#263238" stroke-width="1.05369" stroke-linecap="round" stroke-linejoin="round"/>
<path d="M39.8475 117.294C39.9434 117.441 40.0719 117.561 40.2213 117.642C40.3708 117.723 40.5367 117.763 40.704 117.758" stroke="#263238" stroke-width="1.05369" stroke-linecap="round" stroke-linejoin="round"/>
<path d="M35.7195 118.149C35.7195 118.149 35.932 117.906 35.7774 117.19" stroke="#263238" stroke-width="1.05369" stroke-linecap="round" stroke-linejoin="round"/>
<path d="M30.59 119.903L31.8039 117.768C31.8039 117.768 27.4022 117.37 26.5682 117.014C25.7342 116.657 24.0244 117.45 24.0244 117.45C23.3377 116.879 22.473 116.614 21.6094 116.709C19.4359 117.014 17.1433 117.017 16.8567 117.055L14.2807 118.827C14.2807 118.827 20.3633 119.097 21.8928 119.809L22.9489 119.986C22.9489 119.986 27.37 119.761 30.59 119.903Z" fill="#1EAAF1" stroke="#263238" stroke-width="1.05369" stroke-linecap="round" stroke-linejoin="round"/>
<path d="M30.941 117.64L30.0136 119.311C30.0136 119.311 26.3042 118.668 22.9071 119.339L22.3371 119.526C22.3371 119.526 20.0831 118.211 15.7039 118.322L17.71 116.623C17.71 116.623 21.9346 114.249 24.0309 116.682C24.0309 116.682 24.4495 116.173 26.462 115.851C28.4745 115.529 30.941 117.64 30.941 117.64Z" fill="white" stroke="#263238" stroke-width="1.05369" stroke-linecap="round" stroke-linejoin="round"/>
<path d="M24.0373 116.682L22.7493 118.816C22.7493 118.816 21.7286 117.868 19.7128 117.647C18.4809 117.525 17.2414 117.764 16.1258 118.339" stroke="#263238" stroke-width="1.05369" stroke-linecap="round" stroke-linejoin="round"/>
<path d="M22.7396 118.816C22.7396 118.816 23.6799 118.225 25.6376 117.92C27.5954 117.616 29.8655 119.145 29.8655 119.145" fill="white"/>
<path d="M22.7396 118.816C22.7396 118.816 23.6799 118.225 25.6376 117.92C27.5954 117.616 29.8655 119.145 29.8655 119.145" stroke="#263238" stroke-width="1.05369" stroke-linecap="round" stroke-linejoin="round"/>
<path d="M150.332 138.085V153.655L78.1043 151.987L44.0077 151.202L36.5116 151.029V138.085H150.332Z" fill="white"/>
<path opacity="0.4" d="M148.419 138.085C147.653 140.137 145.969 142.517 142.414 144.524C134.226 149.14 117.582 141.694 107.513 142.171C100.915 142.483 90.0022 148.358 78.1043 152.001C71.8575 153.915 65.337 155.212 59.0226 154.769C53.1461 154.354 48.0199 153.129 44.011 151.219C40.6686 149.628 38.099 147.555 36.5148 145.078V138.085H148.419Z" fill="#1EAAF1"/>
<path d="M36.5116 138.085V153.673" stroke="#263238" stroke-width="1.05369" stroke-linecap="round" stroke-linejoin="round"/>
<path d="M150.834 128.363H41.2289L34.7824 135.84V138.756H151.211" fill="white"/>
<path d="M150.834 128.363H41.2289L34.7824 135.84V138.756H151.211" stroke="#263238" stroke-width="1.05369" stroke-linecap="round" stroke-linejoin="round"/>
<path d="M36.1413 135.84H154.943" stroke="#263238" stroke-width="1.05369" stroke-linecap="round" stroke-linejoin="round"/>
<path d="M115.324 131.099V134.068H129.75L128.14 130.712L115.324 131.099Z" fill="white" stroke="#263238" stroke-width="1.05369" stroke-linecap="round" stroke-linejoin="round"/>
<path d="M131.003 131.099L140.373 129.826L147.109 132.39L138.521 134.67L131.003 131.099Z" fill="white" stroke="#263238" stroke-width="1.05369" stroke-linecap="round" stroke-linejoin="round"/>
<path d="M132.748 129.162C132.459 129.227 132.163 129.249 131.869 129.228C130.836 129.2 129.806 129.106 128.784 128.947C127.702 128.767 127.422 128.473 127.422 128.473L109.618 128.407H107.513C107.397 128.859 107.154 129.262 106.819 129.56C106.483 129.859 106.07 130.04 105.635 130.079C104.402 130.262 101.179 129.667 100.734 129.169C99.3274 127.581 99.7685 123.712 100.847 123.183C100.847 123.183 102.415 117.92 104.025 114.1C105.745 110.007 110.639 105.274 116.963 104.492C123.287 103.71 129.392 111.357 131.476 115.176C132.733 117.496 133.787 119.935 134.625 122.463C134.625 122.463 135.462 123.318 135.61 124.242C135.926 126.165 135.633 128.155 132.748 129.162Z" fill="white"/>
<path opacity="0.4" d="M132.39 128.767C132.24 128.949 132.064 129.104 131.869 129.227C130.836 129.2 129.806 129.106 128.784 128.947C127.702 128.767 127.422 128.473 127.422 128.473L109.618 128.407C108.45 127.563 107.654 126.608 107.513 125.591C107.046 122.093 104.763 121.66 102.683 121.972C102.683 121.972 103.356 119.858 104.917 119.958C106.479 120.059 107.88 121.972 107.88 121.972C107.641 119.398 104.563 115.318 105.503 115.529C106.444 115.74 108.569 118.425 108.675 118.557C108.617 118.422 107.274 115.394 108.437 115.533C109.599 115.671 110.691 120.47 110.691 120.47C110.691 120.47 114.619 123.031 117.176 123.401C119.732 123.771 126.131 119.958 126.131 119.958L126.395 122.505C126.395 122.505 129.853 120.148 131.466 121.28C133.079 122.411 133.35 127.504 132.39 128.767Z" fill="#1EAAF1"/>
<path opacity="0.4" d="M117.282 117.806C116.435 116.315 113.077 114.543 113.077 114.543L111.351 115.581C107.342 112.218 109.995 107.654 109.995 107.654C111.087 106.208 121.587 105.35 123.654 107.654C125.722 109.959 125.48 113.035 124.569 115.149L122.347 114.093C122.347 114.093 119.127 115.1 118.325 117.796" fill="#1EAAF1"/>
<path d="M132.748 129.162C132.459 129.227 132.163 129.249 131.869 129.228C130.836 129.2 129.806 129.106 128.784 128.947C127.702 128.767 127.422 128.473 127.422 128.473L109.618 128.407H107.513C107.397 128.859 107.154 129.262 106.819 129.56C106.483 129.859 106.07 130.04 105.635 130.079C104.402 130.262 101.179 129.667 100.734 129.169C99.3274 127.581 99.7685 123.712 100.847 123.183C100.847 123.183 102.415 117.92 104.025 114.1C105.745 110.007 110.639 105.274 116.963 104.492C123.287 103.71 129.393 111.357 131.476 115.176C132.733 117.496 133.787 119.935 134.625 122.463C134.625 122.463 135.462 123.318 135.61 124.242C135.926 126.165 135.633 128.155 132.748 129.162Z" stroke="#263238" stroke-width="1.05369" stroke-linecap="round" stroke-linejoin="round"/>
<path d="M116.149 117.024C116.149 117.024 114.719 119.1 114.806 121.28C114.806 121.28 116.954 119.858 117.536 118.166C117.536 118.166 119.192 120.934 121.159 120.844C121.159 120.844 119.594 117.73 118.879 117.256C120.573 116.026 121.93 114.332 122.811 112.35C122.811 112.35 121.523 112.492 121.545 112.004C121.545 112.004 118.924 116.664 117.582 117.003C116.125 116.194 114.995 114.84 114.403 113.197L111.541 112.799C111.541 112.799 113.734 116.204 116.149 117.024Z" fill="#1EAAF1" stroke="#263238" stroke-width="1.05369" stroke-linecap="round" stroke-linejoin="round"/>
<path d="M117.189 116.495C116.435 115.004 113.447 113.232 113.447 113.232L111.911 114.27C108.343 110.903 110.7 106.34 110.7 106.34C111.666 104.893 121.027 104.035 122.859 106.34C124.691 108.644 124.488 111.72 123.674 113.838L121.697 112.796C121.697 112.796 118.834 113.806 118.119 116.498" fill="white"/>
<path d="M117.189 116.495C116.435 115.004 113.447 113.232 113.447 113.232L111.911 114.27C108.343 110.903 110.7 106.34 110.7 106.34C111.666 104.893 121.027 104.035 122.859 106.34C124.691 108.644 124.488 111.72 123.674 113.838L121.697 112.796C121.697 112.796 118.834 113.806 118.119 116.498" stroke="#263238" stroke-width="1.05369" stroke-linecap="round" stroke-linejoin="round"/>
<path d="M104.92 115.052C104.92 115.052 108.337 117.55 109.448 121.301C110.559 125.051 109.937 127.875 109.937 127.875" stroke="#263238" stroke-width="1.05369" stroke-linecap="round" stroke-linejoin="round"/>
<path d="M108.678 117.024C108.678 117.024 109.966 119.128 109.821 122.834" stroke="#263238" stroke-width="1.05369" stroke-linecap="round" stroke-linejoin="round"/>
<path d="M129.766 114.09C129.766 114.09 124.495 118.664 127.441 128.473" stroke="#263238" stroke-width="1.05369" stroke-linecap="round" stroke-linejoin="round"/>
<path d="M127.425 116.111C127.425 116.111 126.163 120.906 126.839 122.834" stroke="#263238" stroke-width="1.05369" stroke-linecap="round" stroke-linejoin="round"/>
<path d="M113.241 111.066C113.241 111.066 115.479 114.381 117.446 115.536C118.734 114.438 119.756 113.024 120.428 111.412C121.532 108.751 113.46 111.066 113.46 111.066" fill="white"/>
<path d="M113.241 111.066C113.241 111.066 115.479 114.381 117.446 115.536C118.734 114.438 119.756 113.024 120.428 111.412C121.532 108.751 113.46 111.066 113.46 111.066" stroke="#263238" stroke-width="1.05369" stroke-linecap="round" stroke-linejoin="round"/>
<path d="M124.694 100.499C124.694 100.499 125.638 99.8798 126.015 100.42C126.391 100.959 125.812 104.084 125.677 104.419C125.541 104.755 125.458 104.572 124.965 105.679C124.472 106.786 124.186 106.333 124.157 105.727" fill="white"/>
<path d="M124.694 100.499C124.694 100.499 125.638 99.8798 126.015 100.42C126.391 100.959 125.812 104.084 125.677 104.419C125.541 104.755 125.458 104.572 124.965 105.679C124.472 106.786 124.186 106.333 124.157 105.727" stroke="#263238" stroke-width="1.05369" stroke-linecap="round" stroke-linejoin="round"/>
<path d="M109.267 101.423C109.267 101.423 108.266 100.921 107.947 101.503C107.629 102.084 108.53 105.118 108.698 105.437C108.865 105.755 108.933 105.561 109.538 106.603C110.143 107.644 110.378 107.163 110.346 106.554" fill="white"/>
<path d="M109.267 101.423C109.267 101.423 108.266 100.921 107.947 101.503C107.629 102.084 108.53 105.118 108.698 105.437C108.865 105.755 108.933 105.561 109.538 106.603C110.143 107.644 110.378 107.163 110.346 106.554" stroke="#263238" stroke-width="1.05369" stroke-linecap="round" stroke-linejoin="round"/>
<path d="M116.532 92.5862C122.547 92.2402 124.07 97.5582 124.421 102.845C124.981 111.35 121.436 111.495 117.427 111.737C113.328 111.983 110.53 113.101 109.541 103.433C109.013 98.2848 110.633 92.9391 116.532 92.5862Z" fill="white" stroke="#263238" stroke-width="1.05369" stroke-linecap="round" stroke-linejoin="round"/>
<path d="M114.983 101.108C114.983 101.108 113.373 100.24 111.911 102.354" stroke="#263238" stroke-width="1.05369" stroke-linecap="round" stroke-linejoin="round"/>
<path d="M118.741 100.734C118.741 100.734 120.528 99.904 122.093 101.745" stroke="#263238" stroke-width="1.05369" stroke-linecap="round" stroke-linejoin="round"/>
<path d="M114.561 103.838C114.59 104.361 114.352 104.8 114.033 104.817C113.714 104.835 113.431 104.43 113.405 103.911C113.379 103.392 113.614 102.949 113.933 102.932C114.252 102.914 114.535 103.319 114.561 103.838Z" fill="#263238"/>
<path d="M120.55 103.482C120.579 104.001 120.341 104.44 120.022 104.461C119.704 104.482 119.42 104.07 119.378 103.551C119.336 103.032 119.591 102.592 119.91 102.572C120.228 102.551 120.525 102.959 120.55 103.482Z" fill="#263238"/>
<path d="M123.168 105.153C123.168 105.153 123.951 104.717 124.778 102.24" stroke="#263238" stroke-width="1.05369" stroke-linecap="round" stroke-linejoin="round"/>
<path d="M111.238 105.876C111.238 105.876 110.04 105.405 109.541 103.454" stroke="#263238" stroke-width="1.05369" stroke-linecap="round" stroke-linejoin="round"/>
<path d="M110.7 105.589C110.7 105.589 115.695 105.167 116.944 105.008C118.193 104.848 123.674 104.81 123.674 104.81C123.674 104.81 123.551 109.813 122.605 111.066C120.756 113.505 114.957 114.083 112.24 111.758C111.557 111.184 110.7 105.589 110.7 105.589Z" fill="#1EAAF1" stroke="#263238" stroke-width="1.05369" stroke-linecap="round" stroke-linejoin="round"/>
<path d="M119.971 96.8558C119.971 96.8558 119.929 99.2363 115.972 101.146C115.972 101.146 116.86 100.534 117.189 98.4405C117.189 98.4405 113.621 100.537 111.911 100.932L110.198 101.326L109.554 105.153C109.554 105.153 108.06 100.388 107.893 97.5028C107.725 94.6172 109.071 90.0777 114.709 89.14C120.348 88.2024 123.687 91.8077 123.687 91.8077C123.687 91.8077 127.361 93.3716 124.492 103.873C124.18 102.601 123.74 101.369 123.181 100.198C122.36 98.5858 119.971 96.8558 119.971 96.8558Z" fill="#263238"/>
<path d="M100.709 128.179C99.762 126.248 100.802 123.802 103.307 123.418C105.812 123.034 108.321 124.646 107.516 127.743C106.711 130.84 101.913 130.636 100.709 128.179Z" fill="white" stroke="#263238" stroke-width="1.05369" stroke-linecap="round" stroke-linejoin="round"/>
<path d="M105.271 124.28C105.271 124.28 114.832 126.29 117.208 126.055C119.584 125.819 122.428 124.186 123.522 124.723C124.617 125.259 126.134 128.217 126.379 128.643C126.623 129.068 125.142 129.947 124.315 129.902C123.808 129.836 123.318 129.668 122.869 129.408C122.869 129.408 122.118 131.138 118.039 129.771C118.039 129.771 105.081 132.387 101.807 129.539C99.7588 127.757 100.355 126.124 101.881 125.166" fill="white"/>
<path d="M105.271 124.28C105.271 124.28 114.832 126.29 117.208 126.055C119.584 125.819 122.428 124.186 123.522 124.723C124.617 125.259 126.134 128.217 126.379 128.643C126.623 129.068 125.142 129.947 124.315 129.902C123.808 129.836 123.318 129.668 122.869 129.408C122.869 129.408 122.118 131.138 118.039 129.771C118.039 129.771 105.081 132.387 101.807 129.539C99.7588 127.757 100.355 126.124 101.881 125.166" stroke="#263238" stroke-width="1.05369" stroke-linecap="round" stroke-linejoin="round"/>
<path d="M122.869 129.404C122.869 129.404 122.482 128.553 123.735 128.176C123.735 128.176 124.237 127.055 124.079 126.446" stroke="#263238" stroke-width="1.05369" stroke-linecap="round" stroke-linejoin="round"/>
<path d="M123.735 128.179C123.735 128.179 124.286 128.906 124.975 128.743" stroke="#263238" stroke-width="1.05369" stroke-linecap="round" stroke-linejoin="round"/>
<path d="M118.036 129.771C118.036 129.771 118.312 129.407 118.036 128.425" stroke="#263238" stroke-width="1.05369" stroke-linecap="round" stroke-linejoin="round"/>
<path d="M131.853 122.072C132.261 121.952 132.69 121.941 133.103 122.041C133.516 122.141 133.899 122.349 134.219 122.647C135.443 123.685 136.724 128.92 133.038 130.009C129.351 131.099 127.47 122.647 131.853 122.072Z" fill="white" stroke="#263238" stroke-width="1.05369" stroke-linecap="round" stroke-linejoin="round"/>
<path d="M133.736 124.003C133.736 124.003 128.278 114.72 127.129 111.703L123.735 113.298C123.815 113.734 126.852 127.221 130.465 129.404C132.757 130.788 133.952 129.598 134.219 127.719" fill="white"/>
<path d="M133.736 124.003C133.736 124.003 128.278 114.72 127.129 111.703L123.735 113.298C123.815 113.734 126.852 127.221 130.465 129.404C132.757 130.788 133.952 129.598 134.219 127.719" stroke="#263238" stroke-width="1.05369" stroke-linecap="round" stroke-linejoin="round"/>
<path d="M124.356 113.754C124.356 113.754 122.859 113.609 122.424 112.409C121.99 111.208 124.034 108.115 124.034 108.115C124.034 108.115 123.616 106.018 124.157 105.727C124.698 105.437 126.166 104.305 126.639 104.655C127.113 105.004 127.605 106.108 127.692 107.423C127.779 108.737 127.032 112.45 127.032 112.45" fill="white"/>
<path d="M124.356 113.754C124.356 113.754 122.859 113.609 122.424 112.409C121.99 111.208 124.034 108.115 124.034 108.115C124.034 108.115 123.616 106.018 124.157 105.727C124.698 105.437 126.166 104.305 126.639 104.655C127.113 105.004 127.605 106.108 127.692 107.423C127.779 108.737 127.032 112.45 127.032 112.45" stroke="#263238" stroke-width="1.05369" stroke-linecap="round" stroke-linejoin="round"/>
<path d="M124.034 108.115C124.034 108.115 124.978 107.257 125.574 107.212L124.034 108.115Z" fill="white"/>
<path d="M124.034 108.115C124.034 108.115 124.978 107.257 125.574 107.212" stroke="#263238" stroke-width="1.05369" stroke-linecap="round" stroke-linejoin="round"/>
<path d="M125.026 107.402C125.107 106.961 125.148 106.512 125.149 106.063L125.026 107.402Z" fill="white"/>
<path d="M125.026 107.402C125.107 106.961 125.148 106.512 125.149 106.063" stroke="#263238" stroke-width="1.05369" stroke-linecap="round" stroke-linejoin="round"/>
<g opacity="0.2">
<path d="M119.971 91.6624C119.971 91.6624 120.438 95.413 118.039 98.4405" stroke="white" stroke-width="1.05369" stroke-linecap="round" stroke-linejoin="round"/>
<path d="M118.741 91.5654C118.342 93.2978 117.485 94.8689 116.273 96.0889C115.061 97.309 113.546 98.1257 111.911 98.4404" stroke="white" stroke-width="1.05369" stroke-linecap="round" stroke-linejoin="round"/>
<path d="M117.105 91.5654C117.105 91.5654 115.968 96.0634 110.7 95.7001" stroke="white" stroke-width="1.05369" stroke-linecap="round" stroke-linejoin="round"/>
<path d="M121.542 95.0531C121.542 95.0531 123.526 96.7831 124.118 98.6411" stroke="white" stroke-width="1.05369" stroke-linecap="round" stroke-linejoin="round"/>
<path d="M121.542 93.4408C121.542 93.4408 122.988 93.5377 123.674 94.0428" stroke="white" stroke-width="1.05369" stroke-linecap="round" stroke-linejoin="round"/>
</g>
<path d="M142.186 146.829H17.8066C17.8062 149.689 18.3301 152.521 19.3484 155.163C20.3667 157.806 21.8595 160.207 23.7414 162.23C25.6234 164.252 27.8577 165.857 30.3168 166.951C32.7759 168.046 35.4116 168.609 38.0733 168.609H121.919C124.581 168.609 127.216 168.046 129.675 166.951C132.134 165.857 134.369 164.252 136.251 162.23C138.133 160.207 139.625 157.806 140.644 155.163C141.662 152.521 142.186 149.689 142.186 146.829Z" fill="white"/>
<path d="M85.8066 109.111L89.5386 100.202C89.7408 98.3019 90.0942 96.4243 90.5947 94.5895C91.3579 91.9979 93.3897 81.6248 93.1353 76.85C92.8809 72.0752 98.7252 77.9399 98.7252 77.9399C98.7252 77.9399 98.342 96.6239 97.7077 99.2293C97.0734 101.835 91.4738 126.169 91.4738 126.169" fill="white"/>
<path d="M85.8066 109.111L89.5386 100.202C89.7408 98.3019 90.0942 96.4243 90.5947 94.5895C91.3579 91.9979 93.3897 81.6248 93.1353 76.85C92.8809 72.0752 98.7252 77.9399 98.7252 77.9399C98.7252 77.9399 98.342 96.6239 97.7077 99.2293C97.0734 101.835 91.4738 126.169 91.4738 126.169" stroke="#263238" stroke-width="1.05369" stroke-linecap="round" stroke-linejoin="round"/>
<path d="M95.254 114.1L94.3267 115.439L94.156 115.685C94.156 115.685 92.7231 131.255 89.7961 137.525C89.6545 137.836 89.5031 138.127 89.3518 138.39C86.1318 143.957 81.701 114.516 81.701 114.516C81.701 114.516 83.179 108.782 85.7325 107.724L86.8047 104.485C86.8047 104.485 94.668 111.222 95.254 114.1Z" fill="white"/>
<path opacity="0.4" d="M94.3267 115.439L94.156 115.685C94.156 115.685 92.7231 131.255 89.7961 137.525C87.8641 134.899 88.4115 128.556 88.8623 127.574C89.5063 126.19 91.0036 127.92 91.0036 127.92C91.0036 127.92 89.7511 122.882 89.574 121.439C89.3969 119.996 90.9167 122.207 91.799 122.986C92.6813 123.764 92.8841 118.65 92.4655 117.104C92.0469 115.557 86.8015 108.167 88.4792 109.011C89.7124 109.641 92.7746 113.447 94.3267 115.439Z" fill="#1EAAF1"/>
<path d="M95.254 114.1L94.3267 115.439L94.156 115.685C94.156 115.685 92.7231 131.255 89.7961 137.525C89.6545 137.836 89.5031 138.127 89.3518 138.39C86.1318 143.957 81.701 114.516 81.701 114.516C81.701 114.516 83.179 108.782 85.7325 107.724L86.8047 104.485C86.8047 104.485 94.668 111.222 95.254 114.1Z" stroke="#263238" stroke-width="1.05369" stroke-linecap="round" stroke-linejoin="round"/>
<path d="M89.1006 125.366C90.7791 130.802 91.6792 136.48 91.77 142.206C91.8151 143.821 91.8001 145.503 91.7249 147.254H57.052L57.0198 129.781C57.0198 129.781 60.9578 122.986 69.7967 120.958C76.6392 119.391 82.3998 112.388 82.3998 112.388C82.8531 112.896 83.2757 113.434 83.6653 114" fill="white"/>
<path opacity="0.4" d="M91.7281 147.261H57.4126C58.3013 142.154 60.7067 137.874 62.3038 138.32C64.8798 139.04 65.7717 144.088 67.1595 145.514C68.5474 146.939 71.2747 144.953 75.4092 143.846C79.5437 142.739 83.427 146.216 85.6552 145.88C86.9432 145.683 89.7092 143.77 91.7732 142.213C91.8183 143.823 91.8033 145.506 91.7281 147.261Z" fill="#1EAAF1"/>
<path opacity="0.4" d="M64.6351 124.28C64.6351 124.28 62.6387 125.21 61.9238 129.771C61.9238 129.771 64.1778 128.584 65.5496 128.473C66.9213 128.363 74.411 132.625 74.411 132.625C74.411 132.625 76.1498 125.591 78.0721 123.764C79.9945 121.937 83.8681 122.332 83.8681 122.332C83.8681 122.332 80.3744 118.207 77.2349 118.149C75.9469 118.124 73.8636 121.034 71.4969 121.982C68.1449 123.311 64.6351 124.28 64.6351 124.28Z" fill="#1EAAF1"/>
<path d="M89.1006 125.366C90.7791 130.802 91.6792 136.48 91.77 142.206C91.8151 143.821 91.8001 145.503 91.7249 147.254H57.052L57.0198 129.781C57.0198 129.781 60.9578 122.986 69.7967 120.958C76.6392 119.391 82.3998 112.388 82.3998 112.388C82.8531 112.896 83.2757 113.434 83.6653 114" stroke="#263238" stroke-width="1.05369" stroke-linecap="round" stroke-linejoin="round"/>
<path d="M75.2868 127.214C75.2868 127.214 77.6954 119.602 78.8288 119.474C79.9623 119.346 82.8764 121.353 82.8764 121.353C77.7662 112.53 70.0189 117.259 66.7764 119.308C60.156 123.512 60.9804 129.788 60.9804 129.788C60.9804 129.788 63.5564 126.743 64.7188 126.349C65.8812 125.954 71.1137 129.788 71.1137 129.788" fill="white"/>
<path d="M75.2868 127.214C75.2868 127.214 77.6954 119.602 78.8288 119.474C79.9623 119.346 82.8764 121.353 82.8764 121.353C77.7662 112.53 70.0189 117.259 66.7764 119.308C60.156 123.512 60.9804 129.788 60.9804 129.788C60.9804 129.788 63.5564 126.743 64.7188 126.349C65.8812 125.954 71.1137 129.788 71.1137 129.788" stroke="#263238" stroke-width="1.05369" stroke-linecap="round" stroke-linejoin="round"/>
<path d="M75.7956 120.581C75.3287 125.003 72.45 128.155 72.45 128.155C66.625 126.629 65.5882 122.501 65.5882 122.501C65.6964 122.393 65.7849 122.264 65.849 122.121C66.171 121.494 66.5381 120.003 65.5496 117.024C65.2882 116.236 64.9828 115.465 64.6351 114.716L75.026 112.796C74.5275 114.14 74.3783 115.603 74.5945 117.031C74.6605 117.47 74.7541 117.903 74.8747 118.329C75.0879 119.12 75.3976 119.877 75.7956 120.581Z" fill="white" stroke="#263238" stroke-width="1.05369" stroke-linecap="round" stroke-linejoin="round"/>
<path d="M79.6049 127.072C79.0027 126.276 72.962 128.657 72.962 128.657C72.962 128.657 66.1163 130.387 66.332 131.615C66.5478 132.843 67.7939 135.58 69.1656 135.22C70.5373 134.86 72.3244 131.324 72.3244 131.324L70.8143 138.32H72.3244L73.2904 131.144C74.6332 132.947 75.6088 136.805 75.6088 136.805L76.4718 135.507C75.9083 133.431 73.9409 130.459 73.9409 130.459C73.9409 130.459 78.1269 132.262 79.1573 132.407C80.1877 132.553 80.2102 127.864 79.6049 127.072ZM68.8758 133.345C68.4411 133.452 68.2737 132.874 68.1062 132.12C67.9388 131.366 71.4937 130.321 71.4937 130.321C71.4937 130.321 69.3137 133.238 68.8758 133.345ZM78.5358 130.279C78.0979 130.567 74.2725 129.307 74.2725 129.307C74.2725 129.307 78.568 127.972 78.7033 128.477C78.8385 128.982 78.977 129.992 78.5423 130.279H78.5358Z" fill="#1EAAF1" stroke="#263238" stroke-width="1.05369" stroke-linecap="round" stroke-linejoin="round"/>
<path d="M72.4661 130.712L71.7867 128.982C71.7867 128.982 72.962 128.106 73.738 128.366L73.5738 130.03" fill="#1EAAF1"/>
<path d="M72.4661 130.712L71.7867 128.982C71.7867 128.982 72.962 128.106 73.738 128.366L73.5738 130.03" stroke="#263238" stroke-width="1.05369" stroke-linecap="round" stroke-linejoin="round"/>
<path d="M95.2766 78.888C94.99 78.9641 91.8988 77.9711 91.5414 75.2965C91.184 72.6219 89.0169 69.1446 89.0169 69.1446C89.0169 69.1446 89.5514 67.8056 90.7235 68.4942C91.3868 68.8817 91.7185 70.6324 93.3542 71.3971C93.7263 70.1622 93.963 68.8849 94.0594 67.5911C94.2719 65.221 94.4845 62.1693 95.3474 61.9375C96.2104 61.7056 96.2748 62.3942 96.2748 62.927C96.2748 63.4599 95.9882 67.0548 96.2748 67.5911C96.5614 68.1274 97.8461 62.1762 98.2068 61.889C99.1052 61.152 99.5592 62.4703 99.5592 62.4703C99.5592 62.4703 98.3485 68.2001 98.4901 68.6602C98.6318 69.1204 100.342 64.9926 100.422 64.4563C100.503 63.92 101.462 64.2487 101.488 65.221C101.51 65.9718 99.7814 70.2657 99.923 70.7224C100.065 71.1791 101.211 68.0305 101.533 67.8022C101.855 67.5738 102.634 67.9544 101.987 70.1134C101.425 71.8551 100.976 73.6367 100.644 75.4453C100.287 77.587 98.6511 79.0437 97.2987 78.9053" fill="white"/>
<path d="M95.2766 78.888C94.99 78.9641 91.8988 77.9711 91.5414 75.2965C91.184 72.6219 89.0169 69.1446 89.0169 69.1446C89.0169 69.1446 89.5514 67.8056 90.7235 68.4942C91.3868 68.8817 91.7185 70.6324 93.3542 71.3971C93.7263 70.1622 93.963 68.8849 94.0594 67.5911C94.2719 65.221 94.4845 62.1693 95.3474 61.9375C96.2104 61.7056 96.2748 62.3942 96.2748 62.927C96.2748 63.4599 95.9882 67.0548 96.2748 67.5911C96.5614 68.1274 97.8461 62.1762 98.2068 61.889C99.1052 61.152 99.5592 62.4703 99.5592 62.4703C99.5592 62.4703 98.3485 68.2001 98.4901 68.6602C98.6318 69.1204 100.342 64.9926 100.422 64.4563C100.503 63.92 101.462 64.2487 101.488 65.221C101.511 65.9718 99.7814 70.2657 99.923 70.7224C100.065 71.1791 101.211 68.0305 101.533 67.8022C101.855 67.5738 102.634 67.9544 101.987 70.1134C101.425 71.8551 100.976 73.6367 100.644 75.4453C100.287 77.587 98.6511 79.0437 97.2987 78.9053" stroke="#263238" stroke-width="1.05369" stroke-linecap="round" stroke-linejoin="round"/>
<path d="M93.3542 71.4005C94.1721 71.7465 95.5599 72.5112 95.9882 74.037" stroke="#263238" stroke-width="1.05369" stroke-linecap="round" stroke-linejoin="round"/>
<path d="M95.1349 67.5807C95.1349 67.5807 98.9023 67.6187 100.255 71.6323" stroke="#263238" stroke-width="1.05369" stroke-linecap="round" stroke-linejoin="round"/>
<path d="M62.5099 134.978C63.6047 137.58 64.2905 141.479 63.8204 147.316L58.2176 149.105L50.9694 150.586C50.9694 150.586 47.202 142.576 51.4621 138.32C51.4621 138.32 52.6019 133.992 57.0198 129.788C57.4523 129.853 57.8741 129.983 58.2724 130.176" fill="white"/>
<path opacity="0.4" d="M63.8204 147.316L60.4104 148.406C60.1026 147.605 59.9461 146.747 59.95 145.88C59.7664 139.732 53.8738 138.32 53.8738 138.32C56.1536 137.051 58.8262 139.483 59.1804 140.133C58.7586 138.985 58.0115 136.521 59.2062 136.829C61.0512 137.31 62.8158 141.061 62.8158 141.061C62.8158 141.061 61.9238 135.196 62.9703 136.234C63.7818 138.791 64.2197 142.355 63.8204 147.316Z" fill="#1EAAF1"/>
<path d="M62.5099 134.978C63.6047 137.58 64.2905 141.479 63.8204 147.316L58.2176 149.105L50.9694 150.586C50.9694 150.586 47.202 142.576 51.4621 138.32C51.4621 138.32 52.6019 133.992 57.0198 129.788C57.4523 129.853 57.8741 129.983 58.2724 130.176" stroke="#263238" stroke-width="1.05369" stroke-linecap="round" stroke-linejoin="round"/>
<path d="M47.8717 150.026C46.1748 147.604 48.1068 145.182 49.3143 143.296C50.5218 141.41 51.5297 139.628 51.5297 139.628C51.5297 139.628 55.7833 139.282 58.0373 142.144C60.2913 145.005 60.7228 147.275 59.6473 149.289C58.5718 151.302 50.8567 154.316 47.8717 150.026Z" fill="white" stroke="#263238" stroke-width="1.05369" stroke-linecap="round" stroke-linejoin="round"/>
<path d="M74.8682 118.332C73.2582 120.152 69.9191 123.138 65.8522 122.138C66.1742 121.512 66.5413 120.02 65.5528 117.041H74.5913C74.6565 117.478 74.749 117.909 74.8682 118.332Z" fill="#263238"/>
<path d="M79.8238 100.648C79.8238 100.648 81.1537 99.4992 81.8266 100.247C82.4996 100.994 82.1873 105.897 82.0456 106.436C81.9039 106.976 81.7236 106.72 81.1826 108.512C80.6417 110.305 80.1136 109.678 79.9558 108.758" fill="white"/>
<path d="M79.8238 100.648C79.8238 100.648 81.1537 99.4992 81.8266 100.247C82.4996 100.994 82.1873 105.897 82.0456 106.436C81.9039 106.976 81.7236 106.72 81.1826 108.512C80.6417 110.305 80.1136 109.678 79.9558 108.758" stroke="#263238" stroke-width="1.05369" stroke-linecap="round" stroke-linejoin="round"/>
<path d="M56.3887 105.326C56.3887 105.326 54.7626 104.769 54.3826 105.727C54.0026 106.686 55.9346 111.139 56.2502 111.588C56.5658 112.038 56.6334 111.73 57.7475 113.194C58.8616 114.658 59.1353 113.886 58.9775 112.952" fill="white"/>
<path d="M56.3887 105.326C56.3887 105.326 54.7626 104.769 54.3826 105.727C54.0026 106.686 55.9346 111.139 56.2502 111.588C56.5658 112.038 56.6334 111.73 57.7475 113.194C58.8616 114.658 59.1353 113.886 58.9775 112.952" stroke="#263238" stroke-width="1.05369" stroke-linecap="round" stroke-linejoin="round"/>
<path d="M65.6172 88.0328C74.7523 86.2094 78.0592 94.0463 79.563 102.063C81.9812 114.959 76.7873 117.609 70.6951 118.827C64.4676 120.069 60.1882 120.695 56.9071 106.125C55.1554 98.3505 56.6527 89.8216 65.6172 88.0328Z" fill="white" stroke="#263238" stroke-width="1.05369" stroke-linecap="round" stroke-linejoin="round"/>
<path d="M64.5385 99.1739C64.5385 99.1739 61.9109 98.1844 60.0659 101.731" stroke="#263238" stroke-width="1.05369" stroke-linecap="round" stroke-linejoin="round"/>
<path d="M70.2186 97.8073C70.2186 97.8073 72.7946 96.1569 75.5348 98.6412" stroke="#263238" stroke-width="1.05369" stroke-linecap="round" stroke-linejoin="round"/>
<path d="M64.4644 103.997C64.5996 104.79 64.3163 105.509 63.8204 105.606C63.3245 105.703 62.8319 105.142 62.6934 104.35C62.5549 103.558 62.8415 102.838 63.3374 102.741C63.8333 102.644 64.3259 103.205 64.4644 103.997Z" fill="#263238"/>
<path d="M73.5609 102.181C73.6961 102.973 73.4128 103.696 72.9169 103.793C72.421 103.89 71.9251 103.326 71.7867 102.534C71.6482 101.741 71.9348 101.022 72.4307 100.925C72.9266 100.828 73.416 101.378 73.5609 102.181Z" fill="#263238"/>
<path d="M78.1945 91.4374C77.4381 90.2111 76.4495 89.1702 75.2931 88.3826C74.1368 87.595 72.8388 87.0784 71.484 86.8667C67.7102 84.7907 61.8788 86.1747 57.2323 89.7108C52.5858 93.2469 54.872 100.378 54.9332 100.897C55.2745 103.862 57.3063 107.734 57.3063 107.734C57.3063 107.734 57.5189 101.316 58.1725 99.2431C58.3303 96.5893 59.6473 93.8213 59.6473 93.8213C59.2673 94.8593 59.3446 96.6654 59.4509 97.8314C59.6634 97.6688 59.892 97.5027 60.1206 97.3401C60.1206 97.3401 60.5972 97.0183 61.4086 96.5858C61.5535 95.5478 61.9335 93.9182 62.922 93.1674C62.364 94.0801 62.0724 95.1513 62.0848 96.2433C63.3121 95.6422 64.5911 95.1717 65.9037 94.8386L66.4608 94.714C66.7077 94.303 66.9754 93.9068 67.2626 93.5272C68.1159 92.42 68.2801 91.7799 68.2801 91.7799C68.2801 91.7799 68.528 92.2816 67.1145 94.5894C67.7183 94.4766 68.3307 94.4256 68.9434 94.4372C69.576 93.3243 69.9739 92.0759 70.1091 90.78C70.1653 92.052 69.9528 93.3213 69.4876 94.4926C70.4697 93.5514 71.1266 90.3406 71.1266 90.3406C74.1534 90.472 74.7942 92.984 75.2031 93.7832C75.6121 94.5825 76.6457 95.4025 77.3798 97.0218C78.114 98.6411 79.856 103.873 79.856 103.873C79.856 103.873 80.7608 95.617 78.1945 91.4374Z" fill="#263238"/>
<path d="M78.0721 105.876C78.0721 105.876 79.1863 105.046 80.0041 101.077" stroke="#263238" stroke-width="1.05369" stroke-linecap="round" stroke-linejoin="round"/>
<path d="M59.95 109.478C59.95 109.478 58.018 109.014 56.9071 106.125" stroke="#263238" stroke-width="1.05369" stroke-linecap="round" stroke-linejoin="round"/>
<path d="M59.0773 109.166C59.0773 109.166 66.3706 105.232 68.2575 104.724C70.1445 104.215 78.7837 105.229 78.7837 105.229C78.7837 105.229 79.1444 114.107 77.9079 116.211C76.6714 118.315 68.5312 121.103 63.7399 119.263C62.468 118.778 59.0773 109.166 59.0773 109.166Z" fill="#1EAAF1" stroke="#263238" stroke-width="1.05369" stroke-linecap="round" stroke-linejoin="round"/>
<path d="M88.872 95.9181C88.872 95.9181 88.8076 95.6621 88.6885 95.2261C88.0058 93.6103 86.8949 91.2575 85.6971 89.8458C86.4099 90.4961 87.0439 91.2401 87.584 92.0602C86.5279 89.5275 84.847 86.6972 82.6445 86.8045C78.6872 86.9982 75.4189 92.4374 75.4189 92.4374L76.5974 93.856L76.9194 94.2296C76.9194 94.2296 79.666 91.4236 81.3726 92.1536C83.0792 92.8837 85.169 100.589 85.169 100.589C85.363 99.231 85.316 97.8457 85.0306 96.5063C85.9225 98.482 86.5794 100.312 86.5794 100.312C87.196 99.915 87.7202 99.3718 88.1121 98.7242C87.8062 97.2052 87.2749 95.2642 86.4184 93.9632C86.4184 93.9632 87.6001 94.9112 88.6209 97.5927C88.7942 97.0544 88.8792 96.4877 88.872 95.9181Z" fill="#263238"/>
<path d="M46.6031 104.354C46.6031 104.354 46.5773 104.091 46.5483 103.662C46.6449 101.894 46.8961 99.264 47.5433 97.4856C47.0947 98.3674 46.7517 99.3068 46.5226 100.281C46.661 97.5132 47.2825 94.2193 49.3755 93.472C53.1332 92.1226 57.9987 95.9389 57.9987 95.9389L57.374 97.7174L57.2098 98.1845C57.2098 98.1845 53.7064 96.624 52.3572 97.9596C51.008 99.2951 51.6327 107.302 51.6327 107.302C50.9999 106.108 50.5816 104.797 50.3995 103.437C50.2288 105.627 50.2256 107.589 50.2256 107.589C49.5171 107.458 48.8462 107.154 48.2646 106.7C48.0424 105.163 47.8846 103.136 48.2646 101.603C48.2646 101.603 47.4821 102.945 47.4242 105.841C47.0717 105.401 46.7938 104.897 46.6031 104.354Z" fill="#263238"/>
<path d="M17.4492 147.261H141.831" stroke="#263238" stroke-width="1.05369" stroke-linecap="round" stroke-linejoin="round"/>
<path d="M54.4824 143.846C54.4824 143.846 68.7374 146.856 72.2826 146.496C75.8278 146.137 80.0653 143.708 81.7011 144.51C83.3368 145.313 85.5908 149.7 85.9547 150.354C86.3186 151.008 84.1129 152.299 82.8796 152.233C82.1237 152.133 81.392 151.882 80.7222 151.493C80.7222 151.493 79.6049 154.088 73.5158 152.036C73.5158 152.036 54.1958 155.939 49.3111 151.69C46.2585 149.036 47.144 146.597 49.4238 145.168" fill="white"/>
<path d="M54.4824 143.846C54.4824 143.846 68.7374 146.856 72.2826 146.496C75.8278 146.137 80.0653 143.708 81.7011 144.51C83.3368 145.313 85.5908 149.7 85.9547 150.354C86.3186 151.008 84.1129 152.299 82.8796 152.233C82.1237 152.133 81.392 151.882 80.7222 151.493C80.7222 151.493 79.6049 154.088 73.5158 152.036C73.5158 152.036 54.1958 155.939 49.3111 151.69C46.2585 149.036 47.144 146.597 49.4238 145.168" stroke="#263238" stroke-width="1.05369" stroke-linecap="round" stroke-linejoin="round"/>
<path d="M80.7222 151.493C80.7222 151.493 80.1458 150.226 82.0102 149.662C82.0102 149.662 82.7605 147.988 82.5254 147.081" stroke="#263238" stroke-width="1.05369" stroke-linecap="round" stroke-linejoin="round"/>
<path d="M82.0134 149.662C82.0134 149.662 82.8345 150.745 83.8649 150.503" stroke="#263238" stroke-width="1.05369" stroke-linecap="round" stroke-linejoin="round"/>
<path d="M73.5158 152.036C73.5158 152.036 73.928 151.493 73.5158 150.026" stroke="#263238" stroke-width="1.05369" stroke-linecap="round" stroke-linejoin="round"/>
<g opacity="0.2">
<path d="M68.3671 87.5968C67.8597 89.8177 66.7845 91.8419 65.263 93.4407" stroke="white" stroke-width="1.05369" stroke-linecap="round" stroke-linejoin="round"/>
<path d="M69.7066 87.5968C69.7066 87.5968 69.8128 90.5067 68.9531 92.6588" stroke="white" stroke-width="1.05369" stroke-linecap="round" stroke-linejoin="round"/>
<path d="M66.1292 88.1781C65.234 90.0534 61.6212 91.5897 60.7614 94.9562" stroke="white" stroke-width="1.05369" stroke-linecap="round" stroke-linejoin="round"/>
<path d="M61.8787 89.1884C61.4312 89.4755 57.6573 92.0567 57.4416 95.5271" stroke="white" stroke-width="1.05369" stroke-linecap="round" stroke-linejoin="round"/>
</g>
<path d="M83.8649 126.169C83.8649 126.169 82.1293 139.185 72.8751 144.666" stroke="#263238" stroke-width="1.05369" stroke-linecap="round" stroke-linejoin="round"/>
<path d="M90.7364 100.932C91.5414 101.399 94.3557 99.6722 94.3557 99.6722" stroke="#263238" stroke-width="1.05369" stroke-linecap="round" stroke-linejoin="round"/>
<path d="M90.0731 156.312L87.1203 151.122C87.1203 151.122 97.8204 150.154 99.849 149.282C101.878 148.41 106.038 150.341 106.038 150.341C106.038 150.341 108.54 148.074 111.911 148.545C117.189 149.282 122.763 149.296 123.461 149.358L129.766 153.669C129.766 153.669 114.954 154.316 111.238 156.046L108.678 156.479C108.678 156.479 97.859 155.97 90.0731 156.312Z" fill="#1EAAF1" stroke="#263238" stroke-width="1.05369" stroke-linecap="round" stroke-linejoin="round"/>
<path d="M87.906 150.586L90.5883 155.413C90.5883 155.413 104.885 154.402 108.71 155.845L110.095 155.413C110.095 155.413 115.868 152.849 126.517 153.119L121.326 148.344C121.326 148.344 111.058 142.569 105.957 148.486C105.957 148.486 104.94 147.247 100.052 146.469C95.1639 145.69 87.906 150.586 87.906 150.586Z" fill="white" stroke="#263238" stroke-width="1.05369" stroke-linecap="round" stroke-linejoin="round"/>
<path d="M105.97 148.486L109.126 153.676C109.126 153.676 111.608 151.378 116.506 150.839C119.501 150.534 122.516 151.107 125.232 152.496" stroke="#263238" stroke-width="1.05369" stroke-linecap="round" stroke-linejoin="round"/>
<path d="M109.126 153.669C109.126 153.669 106.843 152.24 102.074 151.493C97.3052 150.745 91.7958 154.475 91.7958 154.475" fill="white"/>
<path d="M109.126 153.669C109.126 153.669 106.843 152.24 102.074 151.493C97.3052 150.745 91.7958 154.475 91.7958 154.475" stroke="#263238" stroke-width="1.05369" stroke-linecap="round" stroke-linejoin="round"/>
<path d="M94.8966 154.043C97.4213 153.122 100.09 152.745 102.75 152.932C106.843 153.316 109.126 154.409 109.126 154.409C109.126 154.409 116.902 150.503 122.811 152.486" stroke="#263238" stroke-width="1.05369" stroke-linecap="round" stroke-linejoin="round"/>
<path d="M107.667 154.852C107.838 154.613 108.06 154.422 108.313 154.293C108.567 154.164 108.845 154.102 109.126 154.112C110.13 154.112 110.108 154.852 110.108 154.852" fill="white"/>
<path d="M107.667 154.852C107.838 154.613 108.06 154.422 108.313 154.293C108.567 154.164 108.845 154.102 109.126 154.112C110.13 154.112 110.108 154.852 110.108 154.852" stroke="#263238" stroke-width="1.05369" stroke-linecap="round" stroke-linejoin="round"/>
</svg>
